<?xml version="1.0" encoding="UTF-8"?>
<svg xmlns="http://www.w3.org/2000/svg" xmlns:xlink="http://www.w3.org/1999/xlink" width="49px" height="35px" viewBox="0 0 49 35" version="1.1">
<g id="surface1">
<path style=" stroke:none;fill-rule:nonzero;fill:rgb(38.039216%,85.490196%,98.431373%);fill-opacity:1;" d="M 38.769531 17.433594 C 38.769531 15.523438 36.402344 13.710938 32.773438 12.585938 C 33.613281 8.847656 33.238281 5.875 31.597656 4.921875 C 31.222656 4.699219 30.777344 4.59375 30.296875 4.59375 L 30.296875 5.902344 C 30.5625 5.902344 30.777344 5.957031 30.960938 6.054688 C 31.75 6.515625 32.09375 8.261719 31.824219 10.507812 C 31.761719 11.058594 31.65625 11.640625 31.527344 12.234375 C 30.390625 11.953125 29.144531 11.734375 27.835938 11.59375 C 27.050781 10.507812 26.234375 9.519531 25.417969 8.65625 C 27.3125 6.871094 29.09375 5.898438 30.300781 5.898438 L 30.300781 4.585938 C 28.703125 4.585938 26.609375 5.738281 24.492188 7.738281 C 22.375 5.75 20.28125 4.609375 18.679688 4.609375 L 18.679688 5.921875 C 19.882812 5.921875 21.671875 6.890625 23.566406 8.660156 C 22.753906 9.523438 21.9375 10.507812 21.164062 11.59375 C 19.851562 11.734375 18.605469 11.953125 17.464844 12.242188 C 17.332031 11.652344 17.230469 11.082031 17.164062 10.535156 C 16.890625 8.289062 17.226562 6.542969 18.011719 6.078125 C 18.1875 5.972656 18.414062 5.925781 18.679688 5.925781 L 18.679688 4.617188 C 18.191406 4.617188 17.75 4.722656 17.367188 4.945312 C 15.730469 5.898438 15.363281 8.867188 16.207031 12.59375 C 12.589844 13.722656 10.234375 15.527344 10.234375 17.433594 C 10.234375 19.34375 12.601562 21.152344 16.230469 22.277344 C 15.394531 26.015625 15.765625 28.992188 17.40625 29.945312 C 17.785156 30.167969 18.226562 30.273438 18.714844 30.273438 C 20.316406 30.273438 22.410156 29.121094 24.527344 27.121094 C 26.644531 29.109375 28.738281 30.25 30.335938 30.25 C 30.824219 30.25 31.265625 30.144531 31.652344 29.921875 C 33.285156 28.96875 33.652344 26 32.808594 22.269531 C 36.414062 21.148438 38.769531 19.335938 38.769531 17.433594 Z M 31.199219 13.511719 C 30.984375 14.269531 30.714844 15.050781 30.414062 15.832031 C 30.175781 15.363281 29.925781 14.890625 29.652344 14.421875 C 29.382812 13.953125 29.097656 13.492188 28.8125 13.046875 C 29.640625 13.167969 30.4375 13.324219 31.199219 13.511719 Z M 28.535156 19.773438 C 28.082031 20.566406 27.613281 21.320312 27.132812 22.019531 C 26.265625 22.09375 25.386719 22.136719 24.503906 22.136719 C 23.625 22.136719 22.746094 22.09375 21.886719 22.023438 C 21.402344 21.324219 20.929688 20.578125 20.476562 19.789062 C 20.035156 19.019531 19.632812 18.238281 19.269531 17.449219 C 19.628906 16.664062 20.035156 15.875 20.472656 15.105469 C 20.925781 14.308594 21.390625 13.558594 21.875 12.859375 C 22.742188 12.78125 23.617188 12.742188 24.503906 12.742188 C 25.382812 12.742188 26.257812 12.78125 27.121094 12.851562 C 27.601562 13.550781 28.074219 14.296875 28.527344 15.085938 C 28.96875 15.855469 29.371094 16.636719 29.738281 17.425781 C 29.371094 18.214844 28.96875 19.003906 28.535156 19.773438 Z M 30.414062 19.007812 C 30.726562 19.796875 30.996094 20.582031 31.214844 21.347656 C 30.453125 21.535156 29.652344 21.695312 28.820312 21.820312 C 29.105469 21.367188 29.390625 20.902344 29.65625 20.425781 C 29.925781 19.953125 30.175781 19.476562 30.414062 19.007812 Z M 24.515625 25.28125 C 23.972656 24.71875 23.433594 24.085938 22.898438 23.398438 C 23.421875 23.421875 23.957031 23.441406 24.496094 23.441406 C 25.042969 23.441406 25.585938 23.429688 26.113281 23.398438 C 25.589844 24.085938 25.050781 24.71875 24.515625 25.28125 Z M 20.1875 21.820312 C 19.359375 21.695312 18.5625 21.542969 17.800781 21.355469 C 18.015625 20.59375 18.285156 19.8125 18.585938 19.03125 C 18.824219 19.5 19.074219 19.972656 19.347656 20.441406 C 19.621094 20.914062 19.902344 21.371094 20.1875 21.820312 Z M 24.484375 9.582031 C 25.027344 10.148438 25.566406 10.777344 26.101562 11.464844 C 25.578125 11.441406 25.042969 11.421875 24.503906 11.421875 C 23.957031 11.421875 23.414062 11.433594 22.886719 11.464844 C 23.410156 10.777344 23.949219 10.148438 24.484375 9.582031 Z M 20.179688 13.046875 C 19.894531 13.5 19.609375 13.964844 19.34375 14.441406 C 19.074219 14.910156 18.824219 15.378906 18.585938 15.851562 C 18.273438 15.0625 18.003906 14.273438 17.785156 13.511719 C 18.546875 13.328125 19.347656 13.167969 20.179688 13.046875 Z M 14.917969 20.40625 C 12.859375 19.519531 11.527344 18.355469 11.527344 17.433594 C 11.527344 16.507812 12.859375 15.339844 14.917969 14.457031 C 15.417969 14.238281 15.964844 14.046875 16.527344 13.863281 C 16.859375 15.015625 17.296875 16.214844 17.835938 17.445312 C 17.300781 18.667969 16.871094 19.859375 16.546875 21.007812 C 15.96875 20.824219 15.421875 20.625 14.917969 20.40625 Z M 18.046875 28.808594 C 17.253906 28.351562 16.914062 26.605469 17.179688 24.359375 C 17.242188 23.804688 17.347656 23.222656 17.476562 22.628906 C 18.617188 22.910156 19.859375 23.128906 21.171875 23.269531 C 21.957031 24.359375 22.769531 25.347656 23.589844 26.210938 C 21.695312 27.992188 19.914062 28.96875 18.703125 28.96875 C 18.441406 28.960938 18.222656 28.910156 18.046875 28.808594 Z M 31.84375 24.328125 C 32.117188 26.574219 31.78125 28.320312 30.996094 28.785156 C 30.820312 28.890625 30.59375 28.9375 30.324219 28.9375 C 29.121094 28.9375 27.335938 27.96875 25.4375 26.199219 C 26.253906 25.335938 27.066406 24.351562 27.839844 23.265625 C 29.15625 23.125 30.402344 22.90625 31.539062 22.617188 C 31.675781 23.210938 31.78125 23.78125 31.84375 24.328125 Z M 34.082031 20.40625 C 33.582031 20.625 33.035156 20.820312 32.472656 21 C 32.140625 19.847656 31.703125 18.648438 31.164062 17.421875 C 31.699219 16.199219 32.128906 15.003906 32.453125 13.859375 C 33.03125 14.039062 33.578125 14.238281 34.089844 14.457031 C 36.148438 15.34375 37.480469 16.507812 37.480469 17.433594 C 37.472656 18.355469 36.140625 19.527344 34.082031 20.40625 Z M 18.675781 4.609375 Z M 18.675781 4.609375 "/>
<path style=" stroke:none;fill-rule:nonzero;fill:rgb(38.039216%,85.490196%,98.431373%);fill-opacity:1;" d="M 27.15625 17.433594 C 27.15625 18.917969 25.964844 20.121094 24.496094 20.121094 C 23.027344 20.121094 21.839844 18.917969 21.839844 17.433594 C 21.839844 15.949219 23.027344 14.746094 24.496094 14.746094 C 25.964844 14.746094 27.15625 15.949219 27.15625 17.433594 Z M 27.15625 17.433594 "/>
</g>
</svg>
